<?xml version="1.0" encoding="utf-8"?>
<!-- Generator: Adobe Illustrator 19.2.0, SVG Export Plug-In . SVG Version: 6.00 Build 0)  -->
<svg version="1.1" id="Layer_1" xmlns="http://www.w3.org/2000/svg" xmlns:xlink="http://www.w3.org/1999/xlink" x="0px" y="0px"
	 viewBox="0 0 18 33.2" style="enable-background:new 0 0 18 33.2;" xml:space="preserve">
<style type="text/css">
	.st0{fill:#D8D8D8;}
	.st1{fill:#ED852B;}
	.st2{fill:#A62F42;}
</style>
<g id="rocket">
	<path class="st0" d="M9,11c1.1,0,2-0.9,2-2c0-1.1-0.9-2-2-2C7.9,7,7,7.9,7,9C7,10.1,7.9,11,9,11z M9,8.3c0.4,0,0.7,0.3,0.7,0.7
		c0,0.4-0.3,0.7-0.7,0.7C8.6,9.7,8.3,9.4,8.3,9C8.3,8.6,8.6,8.3,9,8.3z"/>
	<path class="st0" d="M12.3,20C14.8,14.8,16,6.9,10,0.9C9.7,0.6,9.3,0.3,9,0C8.7,0.3,8.4,0.5,8.1,0.8C2,6.9,3.2,15,5.7,20H12.3z
		 M9,2.8c3.9,4.3,4.2,9.9,2,15.2H7C5.8,15.1,4,8.4,9,2.8z"/>
	<path class="st0" d="M16,15.2c-0.1,0.7-0.3,1.3-0.4,1.9c0.5,0.8,0.8,1.8,0.9,2.8c-0.4-0.4-0.9-0.7-1.5-0.9c-0.2,0.5-0.4,1-0.6,1.4
		c1.7,0.7,2.1,2.1,2.3,3.6c0.8-1,1.4-2.4,1.4-3.9C18,18.5,17.4,16.7,16,15.2z"/>
	<path class="st0" d="M3.7,20.4C3.4,20,3.2,19.5,3.1,19c-0.6,0.2-1.1,0.5-1.5,0.9c0.1-1,0.4-2,0.9-2.8c-0.2-0.6-0.3-1.2-0.4-1.9
		c-1.4,1.5-2,3.2-2,4.9C0,21.6,0.5,23,1.4,24C1.6,22.5,2,21.2,3.7,20.4z"/>
</g>
<g id="flames">
	<rect x="5.7" y="21.6" class="st1" width="1.3" height="8"/>
	<rect x="8.4" y="24" class="st2" width="1.3" height="8"/>
	<rect x="11" y="21.8" class="st1" width="1.3" height="8"/>
</g>
</svg>
